<?xml version="1.0" standalone="no"?><!DOCTYPE svg PUBLIC "-//W3C//DTD SVG 1.1//EN" "http://www.w3.org/Graphics/SVG/1.1/DTD/svg11.dtd"><svg t="1582587746052" class="icon" viewBox="0 0 1024 1024" version="1.1" xmlns="http://www.w3.org/2000/svg" p-id="6411" width="32" height="32" xmlns:xlink="http://www.w3.org/1999/xlink"><defs><style type="text/css"></style></defs><path d="M492.918634 672.743024L470.540488 803.315512l43.557463 55.745561 41.159805-58.143219-24.276293-128.274732z" p-id="6412"></path><path d="M745.172293 655.959415c-46.055024-42.958049-102.699707-71.530146-162.840976-84.217756 56.644683-17.782634 104.098341-56.444878 133.169951-106.995513 11.288976 5.394732 23.876683 8.491707 37.063805 8.491708 47.653463 0 86.315707-38.662244 86.315707-86.315708 0-35.465366-21.479024-66.035512-52.149073-79.222634C770.247805 170.533463 653.561756 64.437073 512.099902 64.437073c-141.461854 0-258.048 106.09639-274.631804 243.062634-30.670049 13.187122-52.248976 43.757268-52.248976 79.322537 0 47.653463 38.662244 86.315707 86.315707 86.315707h1.098927c10.190049 15.185171 27.473171 25.175415 47.153951 25.175415h12.188098c28.27239 33.866927 65.93561 59.641756 108.993561 73.228488-6.893268 1.498537-13.686634 3.096976-20.48 4.995122-81.620293 22.677854-152.551024 75.726049-197.806829 147.256195-41.35961 65.536-52.648585 136.766439-52.548683 208.796097 0 14.885463 12.088195 26.973659 26.973658 26.973659s26.973659-12.088195 26.973659-26.973659c0-66.834732 10.190049-125.777171 44.25678-179.924292 37.763122-60.041366 98.204098-105.097366 166.537366-123.978927 11.688585-3.196878 23.477073-5.694439 35.465366-7.392781l24.775805 39.861073h36.864l23.676878-39.261658c56.444878 8.791415 110.19239 34.166634 152.551024 73.728 66.834732 62.538927 91.210927 143.559805 91.510634 236.968585 0 14.785561 12.088195 26.873756 26.973659 26.773854 14.885463 0 26.973659-12.088195 26.973658-26.973659 0.39961-102.4-28.27239-201.703024-108.494048-276.430048zM512.199805 84.617366c128.174829 0 234.371122 94.108098 253.352585 216.888195-4.295805-0.599415-8.59161-0.999024-12.987317-0.999024-3.596488 0-7.192976 0.299707-10.689561 0.699317C720.296585 194.010537 625.688976 113.289366 512 113.289366c-113.489171 0-208.296585 80.621268-229.875512 187.916488-3.496585-0.39961-6.993171-0.699317-10.589659-0.699317-4.295805 0-8.59161 0.299707-12.687609 0.899122 19.081366-122.680195 125.177756-216.788293 253.352585-216.788293zM296.310634 469.441561c4.195902-1.298732 8.291902-2.897171 12.188098-4.695415 2.597463 4.49561 5.294829 8.791415 8.092097 13.08722-7.592585-0.699317-14.685659-3.69639-20.280195-8.391805z m160.343415 28.672c4.795317 6.393756 12.387902 10.489756 20.87961 10.489756h40.760195c14.385951 0 26.074537-11.688585 26.074536-26.074537 0-14.385951-11.688585-26.074537-26.074536-26.074536H477.533659c-12.787512 0-23.477073 9.290927-25.674927 21.479024h-83.818147c-31.069659-34.466341-50.051122-80.021854-50.151024-130.072975 0.199805-107.195317 86.915122-193.910634 194.210341-194.210342 107.29522 0.299707 194.010537 87.015024 194.210342 194.210342-0.299707 107.29522-87.015024 194.010537-194.210342 194.210341-46.554537-0.099902-89.31278-16.483902-122.780097-43.857171l67.334244-0.099902z" p-id="6413"></path></svg>