<?xml version="1.0" standalone="no"?><!DOCTYPE svg PUBLIC "-//W3C//DTD SVG 1.1//EN" "http://www.w3.org/Graphics/SVG/1.1/DTD/svg11.dtd"><svg t="1582704007141" class="icon" viewBox="0 0 1024 1024" version="1.1" xmlns="http://www.w3.org/2000/svg" p-id="1692" xmlns:xlink="http://www.w3.org/1999/xlink" width="32" height="32"><defs><style type="text/css"></style></defs><path d="M285.7472 963.2768A51.3024 51.3024 0 0 1 204.8 921.8048v-104.96H102.4c-28.2624 0-51.2-22.8864-51.2-51.0464V153.4464C51.2 125.2864 74.1376 102.4 102.4 102.4h819.2c28.2624 0 51.2 22.8352 51.2 51.0464v612.352c0 28.16-22.9376 50.9952-51.2 50.9952H491.52l-205.7728 146.4832zM921.6 153.6H102.4v611.9936h153.6V921.6l219.136-156.0064H921.6V153.6zM204.8 307.2h614.4v51.2H204.8V307.2z m0 204.8h307.2v51.2H204.8v-51.2z" p-id="1693"></path></svg>