<?xml version="1.0" standalone="no"?><!DOCTYPE svg PUBLIC "-//W3C//DTD SVG 1.1//EN" "http://www.w3.org/Graphics/SVG/1.1/DTD/svg11.dtd"><svg t="1582700905149" class="icon" viewBox="0 0 1024 1024" version="1.1" xmlns="http://www.w3.org/2000/svg" p-id="1576" xmlns:xlink="http://www.w3.org/1999/xlink" width="32" height="32"><defs><style type="text/css"></style></defs><path d="M457.10287 1024a31.002749 31.002749 0 0 1-16.138418-57.333851l158.411308-97.2552a31.002749 31.002749 0 1 1 32.276835 52.662204L473.241287 1019.328353a30.578054 30.578054 0 0 1-16.138417 4.671647zM457.10287 505.02247a31.002749 31.002749 0 0 1-14.439637-3.397561L17.118646 275.687064A31.002749 31.002749 0 0 1 17.543342 220.901384l424.695196-217.44394a31.002749 31.002749 0 0 1 28.454578 0l424.695196 225.937844a31.002749 31.002749 0 0 1 0 54.78568l-424.695196 217.443941a31.002749 31.002749 0 0 1-13.590246 3.397561z m-358.442746-254.817117l358.867441 190.263447L815.545615 254.877l-358.867441-188.989363z" fill="#515151" p-id="1577"></path><path d="M457.10287 1024a31.002749 31.002749 0 0 1-16.138418-4.671647l-424.695196-261.187546a31.002749 31.002749 0 0 1-15.713722-26.331102V248.506572a31.002749 31.002749 0 0 1 45.442386-27.605188l424.695196 225.937844a31.002749 31.002749 0 0 1 16.563113 27.180493v518.97753a31.002749 31.002749 0 0 1-31.00275 31.002749z m-394.541838-309.602798L425.25073 937.786875V492.70631L62.561032 299.894691zM800.681283 682.545062a19.111284 19.111284 0 0 1-8.918599-2.123476l-203.428999-107.87258a19.111284 19.111284 0 0 1 0-33.975615l203.428999-104.050323a19.111284 19.111284 0 0 1 17.837199 0l203.428998 107.87258a19.111284 19.111284 0 0 1 0 33.975615L807.476407 679.572196a19.111284 19.111284 0 0 1-6.795124 2.972866z m-162.233565-127.408559l162.233565 84.93904 162.233565-82.815564-162.233565-84.939039z" fill="#515151" p-id="1578"></path><path d="M800.681283 930.991752a19.111284 19.111284 0 0 1-10.192684-2.972866l-203.428999-124.860388a19.111284 19.111284 0 0 1-8.918599-16.138417v-231.458882a19.111284 19.111284 0 0 1 28.029883-16.987808L807.476407 646.870666a19.111284 19.111284 0 0 1 10.192684 16.987808v248.021994a19.111284 19.111284 0 0 1-19.111284 19.111284z m-184.317715-155.013747l165.206432 101.502152v-202.579608l-165.206432-87.911906z" fill="#515151" p-id="1579"></path><path d="M800.681283 930.991752a19.111284 19.111284 0 0 1-19.111283-19.111284v-248.44669a19.111284 19.111284 0 0 1 10.192684-16.987807l203.428999-107.87258a19.111284 19.111284 0 0 1 28.029883 16.987808v231.034186a19.111284 19.111284 0 0 1-8.918599 16.138418l-203.428999 124.860387a19.111284 19.111284 0 0 1-10.192685 3.397562z m19.111284-254.817118v202.579609l165.206432-101.502152v-189.838753zM274.908631 555.561199l-61.580804-37.797873V342.788905l415.351902-229.760101 66.677146 33.975616-420.448244 232.308272v176.248507z" fill="#515151" p-id="1580"></path></svg>