<?xml version="1.0" standalone="no"?><!DOCTYPE svg PUBLIC "-//W3C//DTD SVG 1.1//EN" "http://www.w3.org/Graphics/SVG/1.1/DTD/svg11.dtd"><svg t="1582692153356" class="icon" viewBox="0 0 1024 1024" version="1.1" xmlns="http://www.w3.org/2000/svg" p-id="2273" width="16" height="16" xmlns:xlink="http://www.w3.org/1999/xlink"><defs><style type="text/css"></style></defs><path d="M752.2 803.5H273.3V139h478.9v664.5z m-449-29.8h419.2V168.9H303.2v604.8z" fill="#4A82FF" p-id="2274"></path><path d="M790.3 1024h-555c-24.7 0-44.8-20.1-44.8-44.8V44.8c0-24.7 20.1-44.8 44.8-44.8h555C814.9 0 835 20.1 835 44.8v934.5c0 24.7-20.1 44.7-44.7 44.7z m-555-994.1c-8.2 0-14.9 6.7-14.9 14.9v934.5c0 8.2 6.7 14.9 14.9 14.9h555c8.2 0 14.9-6.7 14.9-14.9V44.8c0-8.2-6.7-14.9-14.9-14.9h-555z" fill="#4A82FF" p-id="2275"></path><path d="M585.8 99.4H439.7c-8.2 0-14.9-6.7-14.9-14.9s6.7-14.9 14.9-14.9h146.1c8.2 0 14.9 6.7 14.9 14.9s-6.6 14.9-14.9 14.9zM512.8 945.8c-26.4 0-47.9-21.5-47.9-47.9s21.5-47.9 47.9-47.9 47.9 21.5 47.9 47.9c0 26.5-21.5 47.9-47.9 47.9z m0-65.9c-9.9 0-18 8.1-18 18s8.1 18 18 18 18-8.1 18-18-8.1-18-18-18z" fill="#4A82FF" p-id="2276"></path></svg>