<?xml version="1.0" standalone="no"?><!DOCTYPE svg PUBLIC "-//W3C//DTD SVG 1.1//EN" "http://www.w3.org/Graphics/SVG/1.1/DTD/svg11.dtd"><svg t="1582701784430" class="icon" viewBox="0 0 1024 1024" version="1.1" xmlns="http://www.w3.org/2000/svg" p-id="2158" xmlns:xlink="http://www.w3.org/1999/xlink" width="32" height="32"><defs><style type="text/css"></style></defs><path d="M789.333333 960H234.666667c-46.933333 0-85.333333-38.4-85.333334-85.333333V341.333333c0-23.466667 19.2-42.666667 42.666667-42.666666h106.666667v-42.666667h2.133333c10.666667-108.8 102.4-192 211.2-192s200.533333 83.2 211.2 192h2.133333v42.666667h106.666667c23.466667 0 42.666667 19.2 42.666667 42.666666v533.333334c0 46.933333-38.4 85.333333-85.333334 85.333333z m-106.666666-682.666667c0-93.866667-76.8-170.666667-170.666667-170.666666s-170.666667 76.8-170.666667 170.666666v21.333334h341.333334v-21.333334z m149.333333 362.666667V341.333333h-106.666667v106.666667c0 12.8-8.533333 21.333333-21.333333 21.333333s-21.333333-8.533333-21.333333-21.333333v-106.666667H341.333333v106.666667c0 12.8-8.533333 21.333333-21.333333 21.333333s-21.333333-8.533333-21.333333-21.333333v-106.666667H192v533.333334c0 23.466667 19.2 42.666667 42.666667 42.666666h554.666666c23.466667 0 42.666667-19.2 42.666667-42.666666V640z" p-id="2159"></path></svg>